<svg width="270" height="52" viewBox="0 0 270 52" fill="none" xmlns="http://www.w3.org/2000/svg">
<path d="M162.021 16.8639H154.036V40.1387H150.853V16.8639H144.539V14.0459H150.853V12.2194C150.853 5.38307 154.141 2.98253 158.733 2.98253C160.038 2.98253 161.134 3.13909 162.334 3.29565V6.27022C161.186 6.06148 160.142 5.90493 159.15 5.90493C155.758 5.90493 154.036 7.57487 154.036 12.2194V14.0459H162.021V16.8639Z" fill="#39A2C6"/>
<path d="M163.004 27.0923C163.004 19.1601 168.744 13.4197 176.677 13.4197C184.609 13.4197 190.349 19.1601 190.349 27.0923C190.349 35.0245 184.609 40.7649 176.677 40.7649C168.744 40.7649 163.004 35.0245 163.004 27.0923ZM187.009 27.0923C187.009 20.8822 182.887 16.4986 176.677 16.4986C170.414 16.4986 166.292 20.8822 166.292 27.0923C166.292 33.3024 170.414 37.686 176.677 37.686C182.887 37.686 187.009 33.3024 187.009 27.0923Z" fill="#39A2C6"/>
<path d="M193.938 27.1445C193.938 19.0035 199.574 13.4197 207.611 13.4197C211.212 13.4197 214.291 14.5677 216.743 16.8639L214.656 19.3688C212.569 17.4379 210.064 16.4986 207.454 16.4986C201.349 16.4986 197.226 20.7778 197.226 27.0923C197.226 33.3545 201.401 37.686 207.402 37.686C210.116 37.686 212.777 36.6422 214.917 34.7114L216.848 37.2163C214.395 39.5124 211.107 40.7649 207.454 40.7649C199.366 40.7649 193.938 35.2332 193.938 27.1445Z" fill="#39A2C6"/>
<path d="M240.648 14.0459H243.831V40.1387H240.752V34.7636C238.978 38.7818 235.951 40.7649 231.568 40.7649C224.366 40.7649 221.705 36.0682 221.705 29.3363V14.0459H224.992V29.3884C224.992 34.2939 226.662 37.7903 232.09 37.7903C238.561 37.7903 240.648 32.1543 240.648 26.1007V14.0459Z" fill="#39A2C6"/>
<path d="M250.274 20.83C250.274 16.3942 253.822 13.4197 259.928 13.4197C264.051 13.4197 267.756 14.933 269.791 18.7426L267.13 20.4647C265.877 17.8032 263.32 16.3942 259.772 16.3942C255.701 16.3942 253.509 18.2207 253.457 20.7256C253.457 23.9611 256.536 24.5352 260.659 25.4745C265.773 26.6226 270 27.6141 270 33.0936C270 37.8947 266.347 40.7649 260.085 40.7649C255.231 40.7649 250.9 38.9384 249.074 34.8679L251.683 33.1458C253.144 36.4335 256.484 37.7903 260.189 37.7903C264.155 37.7903 266.764 36.3291 266.764 33.3024C266.764 29.9103 263.842 29.3363 260.033 28.5013C255.075 27.4576 250.274 26.2051 250.274 20.83Z" fill="#39A2C6"/>
<path fill-rule="evenodd" clip-rule="evenodd" d="M88.0191 44.4027C87.9429 42.1329 87.274 39.7318 85.5681 38.1485C83.6625 36.3808 80.9063 35.5695 78.3456 35.5695H66.9255C65.7991 35.5695 64.7994 34.7228 64.7994 33.6778C64.7994 32.7982 65.3994 32.0624 66.2114 31.8497C66.2114 31.8497 66.4037 31.7991 66.6157 31.7309C68.6578 32.7128 70.9644 33.1553 73.2657 33.1553C76.7873 33.1553 80.3168 32.1214 82.8998 29.7052C85.4151 27.3546 86.5907 24.0667 86.5907 20.7026C86.5907 17.3379 85.4151 14.0493 82.8998 11.6987C82.1587 11.0056 81.3395 10.426 80.4652 9.95337C82.8906 10.5146 85.3915 9.81815 87.1159 6.84727L82.2631 3.36111L78.215 8.99634C76.6331 8.485 74.9487 8.24869 73.2657 8.24869C69.7448 8.24869 66.2153 9.28384 63.6323 11.6987C61.1164 14.05 59.9414 17.3373 59.9414 20.7026C59.9414 24.0674 61.1164 27.354 63.6323 29.7052C63.8509 29.9107 64.0767 30.1043 64.3091 30.2894C64.0603 30.4213 63.8358 30.5395 63.8358 30.5395C62.907 31.06 61.7708 31.891 60.6451 33.089C59.0487 34.7864 57.4536 37.33 57.4536 40.7131C57.4536 40.7131 57.2331 47.9316 65.5234 47.9316H71.5295C72.9113 47.9316 74.3193 48.8105 74.3193 50.1922C74.3193 50.6937 74.1716 51.1598 73.9182 51.551H85.4053C87.1415 49.6198 88.1037 46.8807 88.0191 44.4027ZM71.2302 18.4781C71.7974 17.9096 72.5739 17.6661 73.3471 17.6661C74.1217 17.6661 74.8976 17.9096 75.4653 18.4781C76.0187 19.0308 76.2767 19.804 76.2767 20.595C76.2767 21.3873 76.0187 22.1599 75.4653 22.7139C74.8982 23.281 74.121 23.5245 73.3471 23.5245C72.5739 23.5245 71.7974 23.281 71.2302 22.7139C70.6762 22.1599 70.4189 21.3873 70.4189 20.595C70.4189 19.8034 70.6762 19.0308 71.2302 18.4781Z" fill="#39A2C6"/>
<path fill-rule="evenodd" clip-rule="evenodd" d="M120.724 44.4027C120.646 42.1329 119.979 39.7318 118.273 38.1485C116.367 36.3808 113.611 35.5695 111.05 35.5695L97.795 35.473C96.9594 35.473 96.3207 34.9486 96.3207 34.1734C96.3207 33.5347 96.6391 32.5835 97.4386 32.4253C99.0054 32.9242 100.672 33.1553 102.336 33.1553C105.858 33.1553 109.387 32.1214 111.97 29.7052C114.485 27.3546 115.661 24.0667 115.661 20.7026C115.661 17.3379 114.485 14.0493 111.97 11.6987C111.229 11.0056 110.41 10.426 109.535 9.95337C111.96 10.5146 114.462 9.81815 116.185 6.84727L111.333 3.36111L107.285 8.99634C105.703 8.485 104.018 8.24869 102.336 8.24869C98.8151 8.24869 95.2849 9.28384 92.7026 11.6987C90.1866 14.05 89.011 17.3373 89.011 20.7026C89.011 24.0674 90.1866 27.354 92.7026 29.7052C93.447 30.403 94.2714 30.9839 95.151 31.4585C94.5701 31.9015 93.959 32.4404 93.3492 33.089C91.7535 34.7864 90.1584 37.33 90.1584 40.7131C90.1584 40.7131 89.9372 47.9316 98.2282 47.9316H104.234C105.616 47.9316 107.024 48.8105 107.024 50.1922C107.024 50.6937 106.876 51.1598 106.623 51.551H118.11C119.846 49.6198 120.808 46.8807 120.724 44.4027ZM100.379 18.4781C100.947 17.9096 101.723 17.6661 102.497 17.6661C103.271 17.6661 104.047 17.9096 104.614 18.4781C105.168 19.0308 105.426 19.804 105.426 20.595C105.426 21.3873 105.168 22.1599 104.614 22.7139C104.047 23.281 103.271 23.5245 102.497 23.5245C101.723 23.5245 100.947 23.281 100.379 22.7139C99.8259 22.1599 99.568 21.3873 99.568 20.595C99.568 19.8034 99.8259 19.0308 100.379 18.4781Z" fill="#39A2C6"/>
<path fill-rule="evenodd" clip-rule="evenodd" d="M134.622 40.6983V29.9235C132.149 30.2366 131.289 28.4919 131.289 26.7609V0.44899H119.018V28.7262C119.018 32.2373 119.539 35.1662 120.806 37.0087C122.752 39.8129 125.386 41.6495 130.622 41.6705C131.591 41.6291 133.203 41.4388 134.622 40.6983Z" fill="#39A2C6"/>
<path fill-rule="evenodd" clip-rule="evenodd" d="M53.3008 12.9487C50.1324 9.71596 45.8054 8.33161 41.4875 8.33161C37.1704 8.33161 32.8421 9.71596 29.6742 12.9487C26.5898 16.0969 25.1483 20.4974 25.1483 25.0016C25.1483 29.5065 26.5898 33.9071 29.6742 37.0545C32.8421 40.2866 37.1704 41.6723 41.4875 41.6723C45.8054 41.6723 50.1324 40.2873 53.3008 37.0545C56.3846 33.9077 57.8268 29.5052 57.8268 25.0016C57.8268 20.498 56.3846 16.0962 53.3008 12.9487ZM44.1565 27.5944C43.4233 28.3283 42.421 28.642 41.4206 28.642C40.4209 28.642 39.4186 28.3283 38.684 27.5944C37.9705 26.8796 37.6364 25.8799 37.6364 24.8585C37.6364 23.8359 37.9705 22.8362 38.684 22.122C39.4186 21.3875 40.4209 21.0737 41.4206 21.0737C42.421 21.0737 43.4233 21.3875 44.1565 22.122C44.872 22.8362 45.2054 23.8359 45.2054 24.8585C45.2054 25.8799 44.872 26.8803 44.1565 27.5944Z" fill="#39A2C6"/>
<path fill-rule="evenodd" clip-rule="evenodd" d="M20.7233 29.966C18.6826 29.966 17.8463 29.3405 17.0928 28.3821C16.6044 27.7566 16.3602 26.8363 16.3602 25.6443V20.0668H23.2091V10.0691H16.3602V0.448242H7.60575V4.04468C7.60575 8.02905 4.57054 11.2592 0.825756 11.2592C0.546128 11.2592 0.271095 11.2395 0 11.2041V20.0668H4.5968V28.9723C4.5968 32.4781 5.22891 35.1786 6.49249 37.0178C8.4466 39.8331 10.6108 41.6717 15.8961 41.6717C18.9615 41.6717 21.5274 40.9674 23.2091 40.0287V29.5525C22.575 29.796 21.7178 29.966 20.7233 29.966Z" fill="#39A2C6"/>
</svg>
